<svg id="Layer_1" data-name="Layer 1" xmlns="http://www.w3.org/2000/svg" viewBox="0 0 188.75 234.87"><defs><style>.cls-1{fill:#ec9b6a;}.cls-2{fill:none;stroke:#fff;stroke-width:3.21px;}.cls-2,.cls-3,.cls-4{stroke-miterlimit:10;}.cls-3{fill:#d7e2e8;stroke:#b2d1d6;stroke-width:1.93px;}.cls-4{fill:#f4d8b8;stroke:#e5a480;}</style></defs><circle class="cls-1" cx="97.19" cy="90.89" r="90.89"/><path class="cls-2" d="M20.75,71.62c5,2,11.12,6.69,17.43,11.88,4.72,5.23,9.54,14.68,13.9,19,5,5.08,14.39,11.79,16.73,7.11,1.61-3.2-10.35-9.69-10.2-13.45.07-1.67,9.59,4.22,14.81,7.2s6.85,3.55,9.24,3.65c3.72.14,3.94-4,1.55-5.58A155.52,155.52,0,0,0,68.1,92.7c-3.43-3.07-3.91-4.8,2-4.41l18,6.62c7.28,4.26,12-6.06,2.06-8.39-11-2.6-16.49-5.86-16.49-5.86-1.41-.39-10.79-5.82,2.2-3.71,0,0,2.34.9,12.07,2.72s12.59-7.53.83-9.06-20.06-1.94-20.06-1.94c-4.92-.43-7.52-3.37.93-4.94,16.82-3.11,14.25-12-6-6.86a28.93,28.93,0,0,0-9.16,4.58c-7.44-1.39-14.31-3.19-20-5.84" transform="translate(-1.75 -2.72)"/><path class="cls-2" d="M176.34,129.38c-4.63-2.71-10-8.32-15.38-14.42-3.86-5.9-7.16-16-10.81-20.92-4.11-5.78-12.39-13.87-15.43-9.61-2.08,2.93,8.73,11.18,8,14.87-.32,1.64-8.82-5.65-13.52-9.4s-6.22-4.57-8.56-5c-3.66-.72-4.5,3.3-2.4,5.27a154.57,154.57,0,0,0,14.58,11.11c2.91,3.56,3.11,5.34-2.62,4L113.39,96c-6.54-5.33-12.76,4.14-3.34,8,10.5,4.27,15.39,8.33,15.39,8.33,1.34.62,9.77,7.43-2.74,3.34,0,0-2.18-1.26-11.51-4.55s-13.6,5.49-2.22,8.82,19.52,5,19.52,5c4.79,1.18,6.91,4.49-1.68,4.73-17.1.49-15.93,9.67,4.82,7.7a28.8,28.8,0,0,0,9.75-3.1c7.14,2.52,13.66,5.35,18.84,8.85" transform="translate(-1.75 -2.72)"/><path class="cls-3" d="M17.47,214.31v8.61C10.1,226,2.41,219.55,2.73,211.82c-.56-11.68,15.81-17.21,23-8.41,3.27,3.43,2.5,12.77,2.56,17.78.41,10.21-8.58,17.83-18.41,14.14v-8.54c10.8,5,9-8.48,9-14.87.28-3.73-3.24-5.12-5.56-2.9C10.4,211.83,14.1,216.31,17.47,214.31Z" transform="translate(-1.75 -2.72)"/><path class="cls-3" d="M47.68,215.24V225c-12.33,2.65-20.51-13.58-11.49-22.08,4.65-5.1,14.4-4.94,18.84-.24,5.07,4.18,3.17,16,3.5,22H49.14c-.33-2.39.88-13-1-14.77C41.16,204.38,39.21,219.15,47.68,215.24Z" transform="translate(-1.75 -2.72)"/><path class="cls-3" d="M79.38,213.1l9.32-.35c-.83,16.93-26.26,15.9-26.05-.85-.09-15.35,23.14-17.46,25.82-2.31l-9.52.35c-2-3-7-1.54-6.78,2.11C72.05,216.19,78.18,217.56,79.38,213.1Z" transform="translate(-1.75 -2.72)"/><path class="cls-3" d="M102.19,190.35v10.47c15.94-8.36,12.31,15.29,12.63,23.81h-9.39V211.4c-.09-1.74,0-2.64-1.66-2.72-3-.75-1,14.55-1.58,15.95h-9.4V190.35Z" transform="translate(-1.75 -2.72)"/><path class="cls-3" d="M123.54,235.61v-8.16c4.13,1.86,8.1.5,9.26-4.35-16,7.35-12.58-14.7-12.83-23.51h9.39v13.46c0,1.49.62,2.24,1.86,2.24,3.32.89,1.24-14.16,1.78-15.7h9.4c-.8,7.18,2.48,27.14-3.52,32.45A13.56,13.56,0,0,1,123.54,235.61Z" transform="translate(-1.75 -2.72)"/><path class="cls-3" d="M161.79,215.24V225c-12.34,2.65-20.51-13.58-11.49-22.08,4.64-5.1,14.4-4.94,18.83-.24,5.07,4.18,3.18,16,3.51,22h-9.4c-.33-2.39.88-13-1-14.77C155.27,204.38,153.31,219.15,161.79,215.24Z" transform="translate(-1.75 -2.72)"/><path class="cls-4" d="M182.69,220.63a5.69,5.69,0,0,1,4.06,2.09,5.79,5.79,0,0,1,1.43,4.34,5.64,5.64,0,0,1-2.07,4,5.81,5.81,0,0,1-4.33,1.37,5.68,5.68,0,0,1-5.42-6.32,5.81,5.81,0,0,1,2-4.09A5.67,5.67,0,0,1,182.69,220.63ZM190,186.46l-2.64,31.87-8.08-.62,2-31.92Z" transform="translate(-1.75 -2.72)"/></svg>