<?xml version="1.0" encoding="utf-8"?>
<!-- Generator: Adobe Illustrator 24.1.3, SVG Export Plug-In . SVG Version: 6.00 Build 0)  -->
<svg version="1.1" id="Layer_1" xmlns="http://www.w3.org/2000/svg" xmlns:xlink="http://www.w3.org/1999/xlink" x="0px" y="0px"
	 viewBox="0 0 200 200" style="enable-background:new 0 0 200 200;" xml:space="preserve">
<style type="text/css">
	.st0{fill:none;stroke:#FFFFFF;stroke-width:3.54;stroke-miterlimit:10;}
</style>
<path class="st0" d="M14,75.8c5.5,2.2,12.2,7.4,19.2,13.1c5.2,5.8,10.5,16.2,15.3,20.9c5.5,5.6,15.8,13,18.4,7.8
	c1.8-3.5-11.4-10.7-11.2-14.8c0.1-1.8,10.6,4.6,16.3,7.9s7.5,3.9,10.2,4c4.1,0.2,4.3-4.3,1.7-6.1c-5.7-3.5-11.6-6.8-17.7-9.6
	c-3.8-3.4-4.3-5.3,2.2-4.8l19.9,7.3c8,4.7,13.2-6.7,2.3-9.2c-12.1-2.9-18.1-6.4-18.1-6.4c-1.6-0.4-11.9-6.4,2.4-4.1
	c0,0,2.6,1,13.3,3s13.8-8.3,0.9-10s-22.1-2.1-22.1-2.1c-5.4-0.5-8.3-3.7,1-5.4c18.5-3.4,15.7-13.2-6.5-7.5c-3.6,1-7,2.7-10.1,5
	c-8.2-1.5-15.8-3.5-22-6.4"/>
<path class="st0" d="M185.2,139.4c-5.1-3-10.9-9.2-16.9-15.9c-4.3-6.5-7.9-17.6-11.9-23c-4.5-6.4-13.6-15.3-17-10.6
	c-2.3,3.2,9.6,12.3,8.8,16.4c-0.4,1.8-9.7-6.2-14.9-10.3s-6.8-5-9.4-5.5c-4-0.8-5,3.6-2.6,5.8c5.1,4.4,10.4,8.5,16,12.2
	c3.2,3.9,3.4,5.9-2.9,4.5l-18.4-10.3c-7.2-5.9-14,4.6-3.7,8.8c11.6,4.7,16.9,9.2,16.9,9.2c1.5,0.7,10.8,8.2-3,3.7
	c0,0-2.4-1.4-12.7-5s-15,6-2.4,9.7c12.6,3.7,21.5,5.5,21.5,5.5c5.3,1.3,7.6,4.9-1.9,5.2c-18.8,0.5-17.5,10.6,5.3,8.5
	c3.7-0.5,7.4-1.7,10.7-3.4c7.9,2.8,15,5.9,20.7,9.7"/>
</svg>
