<svg id="Layer_1" data-name="Layer 1" xmlns="http://www.w3.org/2000/svg" viewBox="0 0 84.56 76.31"><defs><style>.cls-1{fill:#e8b497;}.cls-2{fill:#ec9b6a;}.cls-3{fill:#b2d1d6;}.cls-4{fill:#fbfdff;}</style></defs><path class="cls-1" d="M67.38,81.59c-14.25.34-23.35-2.3-35.92.37-10.16,2.15-27.39-6.83-27-19.51C5,62.4,3.3,47.32,7.94,40.75c1.12-1.58,10.49-19.44,19.69-24.06a1.79,1.79,0,0,1,.35-.15C30,16,33.54,19,34.2,21.61c1.19,4.82-7.49,7.66-11.31,18.78-.7,2-1.9,5.67-.36,7.11,1.77,1.66,6.08-.61,9.11-1.82,11.14-4.46,22.87-3.11,35.92,2C75.92,51,81.88,52.1,87.07,57.53c3.1,3.24,2.17,13.78-.37,16.41C85.26,75.44,81.63,81.26,67.38,81.59Z" transform="translate(-4.47 -5.97)"/><path class="cls-2" d="M29.45,57.08c.93-10.5,9.22-23.09,18-21.25C52.86,37,63,46.9,65.37,57.08c2.9,12.52-9.46,21.85-18,21.24A19.6,19.6,0,0,1,29.45,57.08Z" transform="translate(-4.47 -5.97)"/><path class="cls-3" d="M34.45,22.66l-6.52-5.32,1.24-1.52.51-3.28,4.08-5.25c1.16-1.29,2.37-1,3.59.1l-.91,1.12c1.41-1.77,2.69-2.14,3.82-.65L38.85,9.54c1.37-2,2.69-2.61,3.93-.9l-2.16,2.64,3.6-4.41C46.51,4.79,48.7,6.62,47,9.11c0,0-5.49,6.46-5.59,6.85-.42.52.64-.52.64-.52l1.76,0c2.15.5,2.06,1.48.37,2.8L41,18.78A17.72,17.72,0,0,1,35.82,21Z" transform="translate(-4.47 -5.97)"/><path class="cls-4" d="M34,60a4.35,4.35,0,0,1,.89,0H35c0-1.05-.1-3.23-.18-3.92h0A3.17,3.17,0,0,1,34,56l.19-1a11.92,11.92,0,0,0,1.7.05h1.78c1.59,0,1.89.37,1.89,2.22v3.66H38.7V57.59c0-1.07-.12-1.55-1.13-1.55h-1.9c0,.69.17,3.17.16,3.93l-.15,1h-.86a10.26,10.26,0,0,0-1.07,0Z" transform="translate(-4.47 -5.97)"/><path class="cls-4" d="M41,58.37a3.47,3.47,0,0,0,.68-1.66c0-.36-.2-.48-.7-.62a6.55,6.55,0,0,1-.66-.21l.18-1,.64.18c1,.23,1.38.55,1.38,1.35a4.21,4.21,0,0,1-.85,2.23Z" transform="translate(-4.47 -5.97)"/><path class="cls-4" d="M46.69,57.59c0-1.07-.12-1.55-1.14-1.55H44.48a5.59,5.59,0,0,1-1.2-.07l.18-1a10.59,10.59,0,0,0,1.51.05h.67c1.58,0,1.88.37,1.88,2.22v3.66h-.83Z" transform="translate(-4.47 -5.97)"/><path class="cls-4" d="M48.72,60a16.43,16.43,0,0,1,1.71,0h1.64c0-.74,0-1.77,0-2.32,0-1.16-.15-1.6-1.18-1.6h-.94a5.72,5.72,0,0,1-1.2-.07l.19-1a9,9,0,0,0,1.39.05h.86c1.54,0,1.71.71,1.71,2.19V59c0,.22,0,.73,0,.92h.79l-.18,1H49.93c-.46,0-1.15,0-1.39,0Z" transform="translate(-4.47 -5.97)"/><path class="cls-4" d="M56.51,60a24.89,24.89,0,0,0-2.26-4.85l1.14-.1a24,24,0,0,1,1.9,4.7c.8-.34,1.22-1,1.22-2.37a6.26,6.26,0,0,0-.46-2.23L59.12,55a6.92,6.92,0,0,1,.29,2.06,3.46,3.46,0,0,1-2.18,3.62,12,12,0,0,1-3.1.76l.18-1.06A12.11,12.11,0,0,0,56.51,60Z" transform="translate(-4.47 -5.97)"/></svg>