<svg id="Layer_1" data-name="Layer 1" xmlns="http://www.w3.org/2000/svg" viewBox="0 0 767.83 337.33"><defs><style>.cls-1,.cls-21{fill:#fbfdff;}.cls-1,.cls-9{stroke:#e5a480;}.cls-1,.cls-11,.cls-15,.cls-16,.cls-17,.cls-2,.cls-20,.cls-7,.cls-8,.cls-9{stroke-miterlimit:10;}.cls-1{stroke-width:0.82px;}.cls-11,.cls-15,.cls-16,.cls-17,.cls-2,.cls-20,.cls-7{fill:none;}.cls-11,.cls-16,.cls-2,.cls-20{stroke:#ec9b6a;}.cls-2{stroke-width:2.46px;}.cls-3,.cls-8{fill:#d7e2e8;}.cls-13,.cls-4{fill:#ec9b6a;}.cls-5{fill:#fff;}.cls-6{opacity:0.69;}.cls-15,.cls-17,.cls-7{stroke:#fff;}.cls-7{stroke-width:0.63px;}.cls-8{stroke:#b2d1d6;stroke-width:0.38px;}.cls-9{fill:#f4d8b8;stroke-width:0.2px;}.cls-10{opacity:0.71;}.cls-11{stroke-width:1.64px;}.cls-12{fill:#b2d1d6;}.cls-13{font-size:20.23px;font-family:Bauhaus93, "Bauhaus 93";}.cls-14{opacity:0.12;}.cls-15{stroke-width:2.34px;}.cls-16,.cls-17{stroke-width:3.28px;}.cls-18{fill:#e8b497;}.cls-19{fill:#1d1d1b;}.cls-20{stroke-width:0.21px;}</style></defs><rect class="cls-1" x="389.11" y="0.41" width="183.96" height="336.51"/><rect class="cls-2" x="499.48" y="273.69" width="41.42" height="41.42" rx="8.86" transform="translate(186.04 665.11) rotate(-90)"/><path class="cls-3" d="M503.53,302.93V288.48L514,292.94a10.93,10.93,0,0,1,3.54-3.49,9.22,9.22,0,0,1,4.57-1.09,8.74,8.74,0,0,1,6.64,2.9,10,10,0,0,1,2.71,7.13,12.81,12.81,0,0,1-.88,4.64h-7.71a6,6,0,0,0,1.08-3,3.15,3.15,0,0,0-1-2.35,3.47,3.47,0,0,0-2.48-.94,3.18,3.18,0,0,0-2.71,1.41,6.48,6.48,0,0,0-1,3.8l-5.37-2v3Z" transform="translate(-39.76 -149.48)"/><rect class="cls-2" x="499.47" y="226.18" width="41.42" height="41.42" rx="10.16" transform="translate(233.54 617.59) rotate(-90)"/><path class="cls-3" d="M504.56,238.16h27.27v7.67H511l6.76,3.4v-1.68h5.93V258.2l-19.14-8.07Z" transform="translate(-39.76 -149.48)"/><rect class="cls-4" x="496.88" y="318.59" width="46.64" height="46.64" rx="8.74" transform="translate(138.53 712.62) rotate(-90)"/><path class="cls-5" d="M524.25,332.25h7.89v17.63l-16.43-8.75-.56-.3a2.69,2.69,0,0,0-1.3-.36c-1.07,0-1.61.63-1.61,1.9a1.88,1.88,0,0,0,1.83,1.83,2,2,0,0,0,1.52-.72l6.24,3.5a9.56,9.56,0,0,1-3.46,3.38,9.36,9.36,0,0,1-4.64,1.18,9.25,9.25,0,0,1-6.74-2.78,9.48,9.48,0,0,1,0-13.44,9.22,9.22,0,0,1,6.75-2.77,9.06,9.06,0,0,1,4.24,1l6.3,3.24Z" transform="translate(-39.76 -149.48)"/><g class="cls-6"><rect class="cls-4" x="499.48" y="368.7" width="41.42" height="41.42" rx="8.75" transform="translate(91.02 760.13) rotate(-90)"/><path class="cls-5" d="M506.57,386H530.8v6.87H506.57Z" transform="translate(-39.76 -149.48)"/></g><circle class="cls-4" cx="417.89" cy="168.15" r="17.83"/><path class="cls-7" d="M453.34,333a15.25,15.25,0,0,1,2.33-3.41c1-.93,2.88-1.88,3.73-2.73s2.31-2.82,1.39-3.28c-.63-.32-1.9,2-2.63,2-.33,0,.82-1.88,1.41-2.91a3.7,3.7,0,0,0,.71-1.81c0-.73-.77-.77-1.09-.31a30.65,30.65,0,0,0-1.71,3.17c-.6.67-.94.76-.87-.39l1.3-3.54c.84-1.43-1.19-2.35-1.64-.41a12.39,12.39,0,0,1-1.15,3.24c-.08.28-1.15,2.12-.73-.43a19.23,19.23,0,0,0,.53-2.37c.36-1.91-1.48-2.47-1.78-.16s-.38,3.93-.38,3.93c-.08,1-.66,1.48-1-.18-.62-3.3-2.36-2.79-1.35,1.17a5.54,5.54,0,0,0,.9,1.79,16.79,16.79,0,0,1-1.15,3.92" transform="translate(-39.76 -149.48)"/><path class="cls-7" d="M464.67,302.45a15,15,0,0,1-2.83,3c-1.15.76-3.13,1.4-4.1,2.12-1.13.81-2.72,2.43-1.88,3,.57.4,2.19-1.72,2.91-1.57.33.06-1.11,1.73-1.84,2.65a3.65,3.65,0,0,0-1,1.68c-.14.72.65.88,1,.47a29.86,29.86,0,0,0,2.17-2.86c.7-.57,1.05-.61.8.51l-1.83,3.3c-1.05,1.28.81,2.5,1.56.66a12.41,12.41,0,0,1,1.64-3c.12-.27,1.45-1.92.65.53a19.19,19.19,0,0,0-.89,2.26c-.65,1.83,1.08,2.67,1.73.44s1-3.83,1-3.83c.23-.94.88-1.36.93.33.1,3.35,1.9,3.12,1.51-.95a5.68,5.68,0,0,0-.61-1.91,16.73,16.73,0,0,1,1.74-3.7" transform="translate(-39.76 -149.48)"/><path class="cls-8" d="M481.34,333.62H483a2.17,2.17,0,0,1-2.18,2.89c-2.29.11-3.38-3.1-1.65-4.5.67-.65,2.5-.49,3.49-.51a2.68,2.68,0,0,1,2.77,3.62h-1.68c1-2.12-1.66-1.77-2.91-1.77a.63.63,0,0,0-.57,1.09A.67.67,0,0,0,481.34,333.62Z" transform="translate(-39.76 -149.48)"/><path class="cls-8" d="M481.52,327.69h1.9a2.56,2.56,0,0,1-4.33,2.25,2.71,2.71,0,0,1,0-3.69c.81-1,3.14-.62,4.31-.69v1.84c-.47.07-2.55-.17-2.9.19C479.39,329,482.29,329.35,481.52,327.69Z" transform="translate(-39.76 -149.48)"/><path class="cls-8" d="M481.1,321.47l-.07-1.83c3.32.17,3.12,5.16-.17,5.11-3,0-3.42-4.54-.45-5.06l.07,1.87a.73.73,0,0,0,.41,1.33A.72.72,0,0,0,481.1,321.47Z" transform="translate(-39.76 -149.48)"/><path class="cls-8" d="M476.63,317h2.06c-1.64-3.13,3-2.42,4.67-2.48v1.84h-2.6c-.34,0-.51,0-.53.33-.15.59,2.85.2,3.13.31v1.84h-6.73Z" transform="translate(-39.76 -149.48)"/><path class="cls-8" d="M485.51,312.81h-1.6a1.2,1.2,0,0,0-.85-1.82c1.44,3.15-2.88,2.47-4.61,2.52v-1.84h2.64c.29,0,.44-.12.44-.37.17-.65-2.78-.24-3.08-.35v-1.84c1.41.16,5.32-.49,6.36.69A2.66,2.66,0,0,1,485.51,312.81Z" transform="translate(-39.76 -149.48)"/><path class="cls-8" d="M481.52,305.31h1.9a2.56,2.56,0,0,1-4.33,2.25,2.73,2.73,0,0,1,0-3.7c.81-1,3.14-.62,4.31-.68V305c-.47.07-2.55-.17-2.9.19C479.39,306.58,482.29,307,481.52,305.31Z" transform="translate(-39.76 -149.48)"/><path class="cls-9" d="M482.57,301.2a1.18,1.18,0,0,1,.41-.79,1.14,1.14,0,0,1,.86-.28,1.07,1.07,0,0,1,.78.4,1.11,1.11,0,0,1,.27.85,1.09,1.09,0,0,1-.39.81,1.13,1.13,0,0,1-.85.26,1.17,1.17,0,0,1-.8-.4A1.16,1.16,0,0,1,482.57,301.2Zm-6.7-1.42,6.25.52-.12,1.58-6.26-.39Z" transform="translate(-39.76 -149.48)"/><rect class="cls-1" x="194.76" y="0.41" width="183.96" height="336.51"/><rect class="cls-4" x="316.55" y="125.02" width="41.42" height="41.42" rx="8.86"/><rect class="cls-4" x="316.22" y="78.42" width="41.42" height="41.42" rx="10.16"/><g class="cls-10"><rect class="cls-4" x="316.55" y="217.49" width="41.42" height="41.42" rx="8.75"/></g><g class="cls-10"><rect class="cls-4" x="316.55" y="171.14" width="41.42" height="41.42" rx="8.75"/></g><g class="cls-10"><rect class="cls-11" x="265.86" y="171.14" width="41.42" height="41.42" rx="8.75"/></g><rect class="cls-4" x="265.86" y="125.02" width="41.42" height="41.42" rx="8.86"/><rect class="cls-4" x="265.53" y="78.42" width="41.42" height="41.42" rx="10.16"/><g class="cls-10"><rect class="cls-4" x="265.86" y="217.49" width="41.42" height="41.42" rx="8.75"/></g><rect class="cls-4" x="215.84" y="125.02" width="41.42" height="41.42" rx="8.86"/><rect class="cls-11" x="215.51" y="78.42" width="41.42" height="41.42" rx="10.16"/><g class="cls-10"><rect class="cls-4" x="215.84" y="217.49" width="41.42" height="41.42" rx="8.75"/></g><g class="cls-10"><rect class="cls-4" x="215.84" y="171.14" width="41.42" height="41.42" rx="8.75"/></g><circle class="cls-4" cx="349.91" cy="28.91" r="17.83"/><path class="cls-7" d="M374.33,174.08a15.5,15.5,0,0,1,3.42,2.33c.92,1,1.87,2.88,2.73,3.73,1,1,2.82,2.31,3.28,1.39.31-.62-2-1.9-2-2.63,0-.33,1.88.82,2.9,1.41a3.63,3.63,0,0,0,1.81.71c.73,0,.78-.77.31-1.09a31.44,31.44,0,0,0-3.16-1.71c-.68-.6-.77-.94.38-.87l3.54,1.3c1.43.84,2.35-1.19.41-1.64a12.39,12.39,0,0,1-3.24-1.15c-.28-.08-2.12-1.15.43-.73a16.77,16.77,0,0,0,2.37.53c1.91.36,2.47-1.47.16-1.77s-3.93-.39-3.93-.39c-1-.08-1.48-.66.18-1,3.3-.61,2.8-2.36-1.17-1.35a5.7,5.7,0,0,0-1.79.9,16.94,16.94,0,0,1-3.92-1.15" transform="translate(-39.76 -149.48)"/><path class="cls-7" d="M404.85,185.42a15.56,15.56,0,0,1-3-2.83c-.75-1.16-1.4-3.14-2.12-4.11-.8-1.13-2.43-2.72-3-1.88-.41.57,1.71,2.19,1.57,2.91-.07.33-1.74-1.1-2.66-1.84a3.65,3.65,0,0,0-1.68-1c-.71-.14-.88.65-.47,1a33,33,0,0,0,2.86,2.18c.57.69.61,1-.51.79l-3.3-1.83c-1.28-1.05-2.5.81-.65,1.56a12.41,12.41,0,0,1,3,1.64c.26.12,1.91,1.46-.54.65a19.19,19.19,0,0,0-2.26-.89c-1.83-.65-2.67,1.08-.44,1.73s3.83,1,3.83,1c.94.24,1.36.89-.33.93-3.35.1-3.12,1.9.95,1.51a5.68,5.68,0,0,0,1.91-.61,16.73,16.73,0,0,1,3.7,1.74" transform="translate(-39.76 -149.48)"/><path class="cls-8" d="M373.68,202.08v1.69a2.17,2.17,0,0,1-2.89-2.18c-.11-2.29,3.11-3.38,4.51-1.65.64.67.49,2.5.5,3.49a2.68,2.68,0,0,1-3.61,2.77v-1.68c2.11,1,1.76-1.66,1.77-2.91a.64.64,0,0,0-1.1-.57A.67.67,0,0,0,373.68,202.08Z" transform="translate(-39.76 -149.48)"/><path class="cls-8" d="M379.61,202.26v1.9a2.56,2.56,0,0,1-2.25-4.33,2.72,2.72,0,0,1,3.69,0c1,.82.63,3.14.69,4.31H379.9c-.07-.47.17-2.55-.19-2.9C378.33,200.13,378,203,379.61,202.26Z" transform="translate(-39.76 -149.48)"/><path class="cls-8" d="M385.83,201.84l1.83-.07c-.16,3.32-5.15,3.12-5.11-.17,0-3,4.54-3.42,5.06-.45l-1.86.07a.73.73,0,0,0-1.33.41A.72.72,0,0,0,385.83,201.84Z" transform="translate(-39.76 -149.48)"/><path class="cls-8" d="M390.3,197.38v2.05c3.13-1.64,2.42,3,2.48,4.67h-1.84v-2.6c0-.34,0-.51-.33-.53-.59-.14-.2,2.86-.31,3.13h-1.84v-6.72Z" transform="translate(-39.76 -149.48)"/><path class="cls-8" d="M394.49,206.25v-1.6a1.2,1.2,0,0,0,1.82-.85c-3.14,1.44-2.47-2.88-2.52-4.61h1.85v2.64c0,.29.12.44.36.44.65.17.24-2.78.35-3.08h1.84c-.15,1.41.49,5.32-.69,6.36A2.64,2.64,0,0,1,394.49,206.25Z" transform="translate(-39.76 -149.48)"/><path class="cls-8" d="M402,202.26v1.9a2.57,2.57,0,0,1-2.26-4.33,2.74,2.74,0,0,1,3.7,0c1,.82.62,3.14.68,4.31h-1.84c-.06-.47.17-2.55-.19-2.9C400.72,200.13,400.33,203,402,202.26Z" transform="translate(-39.76 -149.48)"/><path class="cls-9" d="M406.1,203.31a1.13,1.13,0,0,1,.79.42,1.1,1.1,0,0,1,.28.85,1.07,1.07,0,0,1-.4.78,1.11,1.11,0,0,1-.85.27,1.05,1.05,0,0,1-.8-.39,1.2,1.2,0,0,1,.14-1.65A1.12,1.12,0,0,1,406.1,203.31Zm1.42-6.7-.51,6.26-1.59-.13.39-6.26Z" transform="translate(-39.76 -149.48)"/><circle class="cls-4" cx="231.17" cy="309.01" r="17.83"/><path class="cls-7" d="M286.27,462.81a15.16,15.16,0,0,1-3.42-2.33c-.92-1-1.87-2.88-2.73-3.73s-2.82-2.31-3.28-1.39c-.31.63,2,1.9,2,2.64,0,.32-1.88-.83-2.9-1.42a3.77,3.77,0,0,0-1.81-.71c-.74,0-.78.77-.31,1.09a28.58,28.58,0,0,0,3.16,1.71c.67.61.77.95-.38.87l-3.54-1.3c-1.43-.84-2.35,1.19-.41,1.65a12.66,12.66,0,0,1,3.24,1.14c.27.08,2.11,1.15-.43.73a19.23,19.23,0,0,0-2.37-.53c-1.91-.36-2.47,1.48-.17,1.78s3.94.38,3.94.38c1,.08,1.47.66-.18,1-3.3.61-2.8,2.35,1.17,1.34a5.7,5.7,0,0,0,1.79-.9,16.94,16.94,0,0,1,3.92,1.15" transform="translate(-39.76 -149.48)"/><path class="cls-7" d="M255.75,451.48a15,15,0,0,1,3,2.83c.75,1.15,1.4,3.13,2.12,4.1.8,1.13,2.43,2.72,3,1.88.41-.57-1.71-2.19-1.57-2.91.07-.32,1.73,1.11,2.66,1.84a3.69,3.69,0,0,0,1.67,1c.72.14.89-.65.47-1a27.93,27.93,0,0,0-2.85-2.18c-.58-.7-.62-1.05.51-.8l3.3,1.83c1.28,1.05,2.5-.81.65-1.56a12.41,12.41,0,0,1-3-1.64c-.26-.12-1.91-1.45.54-.65a16.86,16.86,0,0,0,2.26.89c1.83.65,2.67-1.08.43-1.73s-3.83-1-3.83-1c-.94-.23-1.35-.88.33-.93,3.36-.09,3.13-1.9-.94-1.51a5.68,5.68,0,0,0-1.91.61,16.51,16.51,0,0,1-3.7-1.74" transform="translate(-39.76 -149.48)"/><path class="cls-8" d="M286.91,434.82v-1.69a2.17,2.17,0,0,1,2.9,2.17c.11,2.3-3.11,3.38-4.51,1.66-.64-.68-.49-2.51-.5-3.49a2.68,2.68,0,0,1,3.61-2.78v1.68c-2.12-1-1.76,1.66-1.77,2.91a.63.63,0,0,0,1.09.57A.66.66,0,0,0,286.91,434.82Z" transform="translate(-39.76 -149.48)"/><path class="cls-8" d="M281,434.63v-1.9a2.57,2.57,0,0,1,2.25,4.33,2.72,2.72,0,0,1-3.69.05c-1-.82-.63-3.15-.69-4.32h1.84c.07.47-.17,2.55.19,2.9C282.27,436.77,282.65,433.87,281,434.63Z" transform="translate(-39.76 -149.48)"/><path class="cls-8" d="M274.77,435.05l-1.83.07c.16-3.32,5.15-3.12,5.11.17,0,3-4.54,3.42-5.07.45l1.87-.07a.73.73,0,0,0,1.33-.41A.72.72,0,0,0,274.77,435.05Z" transform="translate(-39.76 -149.48)"/><path class="cls-8" d="M270.29,439.52v-2.06c-3.12,1.64-2.41-3-2.47-4.67h1.84v2.6c0,.34,0,.52.32.53.6.15.21-2.85.31-3.13h1.85v6.73Z" transform="translate(-39.76 -149.48)"/><path class="cls-8" d="M266.11,430.64v1.6a1.2,1.2,0,0,0-1.82.85c3.14-1.44,2.47,2.89,2.52,4.61H265v-2.64c0-.29-.12-.44-.36-.44-.65-.17-.25,2.78-.35,3.08h-1.84c.15-1.4-.49-5.32.69-6.36A2.65,2.65,0,0,1,266.11,430.64Z" transform="translate(-39.76 -149.48)"/><path class="cls-8" d="M258.6,434.63v-1.9a2.57,2.57,0,0,1,2.26,4.33,2.74,2.74,0,0,1-3.7.05c-1-.82-.62-3.15-.69-4.32h1.85c.06.47-.18,2.55.19,2.9C259.88,436.77,260.26,433.87,258.6,434.63Z" transform="translate(-39.76 -149.48)"/><path class="cls-9" d="M254.5,433.58a1.12,1.12,0,0,1-.79-.41,1.16,1.16,0,0,1,.12-1.64,1.16,1.16,0,0,1,1.51,1.77A1.12,1.12,0,0,1,254.5,433.58Zm-1.42,6.7.51-6.25,1.59.12-.39,6.26Z" transform="translate(-39.76 -149.48)"/><path class="cls-12" d="M314.57,346.48a23.87,23.87,0,0,1,2.76-.09H320c0-1.19,0-2.84,0-3.74,0-1.86-.24-2.58-1.9-2.58h-1.52a10.66,10.66,0,0,1-1.94-.1l.32-1.56a16.48,16.48,0,0,0,2.23.07h1.38c2.5,0,2.78,1.15,2.78,3.55v2.88c0,.36,0,1.18-.07,1.48h1.27l-.3,1.59h-5.69c-.75,0-1.85,0-2.25,0Z" transform="translate(-39.76 -149.48)"/><path class="cls-12" d="M324.45,346.36a5.35,5.35,0,0,0,4.14-5c0-1.1-.44-1.31-1.37-1.31h-4.15v-2.51a9.94,9.94,0,0,0-.25-2.78l1.42-.24a13.38,13.38,0,0,1,.17,2.7v1.24h3.37c1.78,0,2.2.89,2.2,2.45a7.56,7.56,0,0,1-5.85,7.21Z" transform="translate(-39.76 -149.48)"/><path class="cls-12" d="M331.34,346.46c.35,0,1.35,0,2.38,0h3.33a18.24,18.24,0,0,0,.33-3.25c0-2.34-.52-3.09-2.42-3.09h-1.61a11.57,11.57,0,0,1-2-.1l.32-1.56a16.78,16.78,0,0,0,2.18.07h1.45c2.88,0,3.44,1.28,3.44,4.54a23.71,23.71,0,0,1-.58,5h-4.8a22.62,22.62,0,0,0-2.3,0Z" transform="translate(-39.76 -149.48)"/><path class="cls-12" d="M275,246.4h.22c1,0,1.63.18,2,.84a6.48,6.48,0,0,1,1.52-.63,14.57,14.57,0,0,1,3.79-.61,6.21,6.21,0,0,1,3.35.76,3,3,0,0,1,1.44,2.64,4.91,4.91,0,0,1-.58,2.37l-.39-.17a4.64,4.64,0,0,0,.29-1.48,2.55,2.55,0,0,0-1.29-2.16,6.15,6.15,0,0,0-3.11-.63,14.84,14.84,0,0,0-3.34.43,8.49,8.49,0,0,0-1.29.43l-.43,1.37-.63.49-.06-.07a3.86,3.86,0,0,0,.23-1.09,1,1,0,0,0-.33-.87,1.82,1.82,0,0,0-1.21-.37H275Zm7.19-2.14a9.4,9.4,0,0,1-1.17-1,4.06,4.06,0,0,1,.81-1c.38.36.76.68,1.15,1C282.68,243.61,282.41,244,282.15,244.26Z" transform="translate(-39.76 -149.48)"/><path class="cls-12" d="M274.76,247.65a2.43,2.43,0,0,0-1.13.3c-.29.16-.47.48-.47,1.17,0,2,.11,3.72.25,6l0,.49-.87.88,0,0c-.19-2.3-.2-4.69-.2-7.68,0-.45-.31-1.11-1.45-1.11h-.12V246.4h.2a1.88,1.88,0,0,1,1.91,1h0a2,2,0,0,1,1.88-1H275a.62.62,0,0,1,.68.65.61.61,0,0,1-.68.6Z" transform="translate(-39.76 -149.48)"/><path class="cls-12" d="M264.68,256.91c.22-.4.47-.8.74-1.2.49-.13,1-.3,1.57-.48,1-.36,2.1-.79,3.21-1.28v0l-1.59-.62.23-.49c-1.5-1.22-2.51-2.46-2.51-3.48a3,3,0,0,1,.63-2,4.92,4.92,0,0,1,3.41-.9h.39a.62.62,0,0,1,.68.65.61.61,0,0,1-.68.6h-.62a5.13,5.13,0,0,0-2.61.5c-.35.22-.53.41-.53.53a2.86,2.86,0,0,0,.67,1.47,16,16,0,0,0,2.94,2.76,1.06,1.06,0,0,1,.35.9,1.29,1.29,0,0,1-.22.63,1.69,1.69,0,0,1-.73.59,44,44,0,0,1-5.26,2Z" transform="translate(-39.76 -149.48)"/><text class="cls-13" transform="translate(212.21 38.62)">0:05</text><text class="cls-13" transform="translate(367.74 302.49) rotate(180)">0:05</text><rect class="cls-1" x="0.41" y="0.41" width="183.96" height="336.51"/><g class="cls-14"><circle class="cls-4" cx="95.31" cy="156.25" r="66.07"/><path class="cls-15" d="M151.05,248.9c-1.43,3.63-4.87,8.08-8.64,12.67-3.8,3.43-10.67,6.93-13.8,10.11-3.69,3.6-8.58,10.45-5.17,12.16,2.33,1.16,7.05-7.53,9.77-7.42,1.22.05-3.06,7-5.23,10.77s-2.58,5-2.65,6.71c-.11,2.71,2.87,2.87,4,1.13a110.37,110.37,0,0,0,6.34-11.71c2.24-2.5,3.49-2.84,3.21,1.42l-4.82,13.12c-3.09,5.3,4.41,8.7,6.11,1.51,1.89-8,4.25-12,4.25-12,.29-1,4.24-7.85,2.7,1.59a66.69,66.69,0,0,0-2,8.78c-1.32,7.07,5.47,9.15,6.58.61s1.41-14.59,1.41-14.59c.31-3.57,2.45-5.46,3.59.68,2.27,12.22,8.73,10.35,5-4.33a21,21,0,0,0-3.33-6.66,61.36,61.36,0,0,1,4.25-14.52" transform="translate(-39.76 -149.48)"/><path class="cls-15" d="M109.06,362c2-3.36,6-7.23,10.48-11.18,4.29-2.8,11.62-5.2,15.21-7.85,4.2-3,10.08-9,7-11.22-2.12-1.51-8.13,6.35-10.8,5.82-1.2-.24,4.1-6.42,6.83-9.83s3.32-4.52,3.65-6.23c.53-2.66-2.39-3.27-3.82-1.74a112.54,112.54,0,0,0-8.08,10.6c-2.59,2.12-3.89,2.26-2.94-1.91l6.78-12.22c3.87-4.75-3-9.27-5.8-2.42-3.1,7.63-6.06,11.18-6.06,11.18-.44,1-5.39,7.1-2.42-2a65.38,65.38,0,0,0,3.31-8.36c2.39-6.78-4-9.89-6.41-1.62s-3.65,14.19-3.65,14.19c-.86,3.49-3.26,5-3.44-1.22-.35-12.43-7-11.58-5.6,3.51a21,21,0,0,0,2.26,7.08,61.36,61.36,0,0,1-6.43,13.7" transform="translate(-39.76 -149.48)"/></g><path class="cls-4" d="M188.11,182.13c0,2.68.24,3.75,2.51,3.75h4.11a15.45,15.45,0,0,1,2.79.14l-.42,2.15a28.45,28.45,0,0,0-3.33-.09h-3.32c-3.43,0-4.2-1-4.2-5v-8.2h1.86Zm8.92-.29h-1.88v-6.92H197Z" transform="translate(-39.76 -149.48)"/><path class="cls-4" d="M183,185.9a5.79,5.79,0,0,1,1.24.15l-.44,2.15a26.58,26.58,0,0,0-3.43-.12h-5.49c-2.95,0-3.48-1.55-3.48-4,0-5.69,3.31-8.32,6.53-8.9a27.44,27.44,0,0,1,3.12-.39C181.65,178,182.67,184.09,183,185.9Zm-5.41-8.59c-3,.61-4.28,3.1-4.28,6.2,0,1.59.46,2.37,2.12,2.37h5.64c-.29-1.77-1.11-6.56-1.5-8.86C179.13,177.07,178.38,177.15,177.59,177.31Z" transform="translate(-39.76 -149.48)"/><path class="cls-4" d="M158.07,182.59v-1.94h6v1.94Z" transform="translate(-39.76 -149.48)"/><path class="cls-4" d="M141.28,182.13c0,2.68.25,3.75,2.52,3.75h4.11a15.31,15.31,0,0,1,2.78.14l-.41,2.15a28.56,28.56,0,0,0-3.34-.09h-3.31c-3.43,0-4.21-1-4.21-5v-8.2h1.86Zm8.93-.29h-1.89v-6.92h1.89Z" transform="translate(-39.76 -149.48)"/><path class="cls-4" d="M130.06,182.42c0,2.39.27,3.46,2.54,3.46H135a14.08,14.08,0,0,1,2.69.14l-.41,2.15a29.17,29.17,0,0,0-3.36-.09h-1.5c-3.53,0-4.21-.85-4.21-5v-8.18h1.86Z" transform="translate(-39.76 -149.48)"/><path class="cls-4" d="M126.46,186l-.41,2.15a29.27,29.27,0,0,0-3.37-.09h-7.11l.44-2.2h.92c.72,0,1-.51,1-2.25,0-2.9-.12-6.34-.19-8.71h1.88c0,1.57.17,5.64.17,8.27,0,1.67-.19,2.23-.51,2.69h4.5A14.08,14.08,0,0,1,126.46,186Z" transform="translate(-39.76 -149.48)"/><path class="cls-4" d="M102.71,182.59v-1.94h6v1.94Z" transform="translate(-39.76 -149.48)"/><path class="cls-4" d="M85.92,182.13c0,2.68.24,3.75,2.52,3.75h4.11a15.31,15.31,0,0,1,2.78.14l-.41,2.15a28.65,28.65,0,0,0-3.34-.09H88.27c-3.44,0-4.21-1-4.21-5v-8.2h1.86Zm8.93-.29H93v-6.92h1.89Z" transform="translate(-39.76 -149.48)"/><path class="cls-4" d="M79.66,182.35c-.34,2.41.63,3.36,2.15,3.72l-.44,2.25a3.7,3.7,0,0,1-3.31-3.41,5,5,0,0,1-4.69,3.38c-3.77,0-4.69-3.45-4.69-8.12v-3.1c0-.22.26-1.81.34-2.15h4.76c1,0,2.22,0,2.73-.07L76.1,177a22.13,22.13,0,0,1-3,.1H70.59c0,1,0,2,0,3,0,3.05.39,6,3.22,6,2.68,0,3.63-2.66,4-4.3s.9-4.55,1.33-6.87H81C80.5,177.41,79.92,180.56,79.66,182.35Z" transform="translate(-39.76 -149.48)"/><path class="cls-12" d="M152.18,206.13c0,1.72.19,2.48,1.82,2.48h1.72a9.87,9.87,0,0,1,1.93.11l-.29,1.54a19.44,19.44,0,0,0-2.42-.07h-1.08c-2.53,0-3-.61-3-3.58v-5.87h1.34Z" transform="translate(-39.76 -149.48)"/><path class="cls-12" d="M148.68,202.23c-.41.07-1.58.07-2.64.09H142.3v3.11c0,1.91.61,2.64,2.77,3,.78.14,1.47.24,1.93.31a3.55,3.55,0,0,0,.48-1.42c0-.63-.41-1.05-1.68-1.26l.35-1.49c1.92.24,2.58,1.15,2.58,2.42a11.76,11.76,0,0,1-1.14,3.4c-.28-.07-1.24-.22-2.7-.43-2.6-.35-3.94-1.18-3.92-4.21v-3.54c0-.2.17-1.24.22-1.48h5.42c.87,0,2,0,2.37-.05Z" transform="translate(-39.76 -149.48)"/><path class="cls-12" d="M138.69,208.63a5.11,5.11,0,0,1,.88.1l-.31,1.55a19.37,19.37,0,0,0-2.47-.09h-3.94c-2.12,0-2.5-1.11-2.5-2.9,0-4.08,2.38-6,4.69-6.4a18.51,18.51,0,0,1,2.24-.27C137.71,203,138.44,207.33,138.69,208.63Zm-3.9-6.17c-2.15.43-3.07,2.22-3.07,4.45,0,1.15.33,1.7,1.53,1.7h4.05c-.21-1.27-.8-4.71-1.08-6.36C135.91,202.29,135.37,202.34,134.79,202.46Z" transform="translate(-39.76 -149.48)"/><path class="cls-12" d="M125.09,202.23a5.87,5.87,0,0,1-1.42.09h-.26c0,1.69.15,5.18.28,6.29h0a5.74,5.74,0,0,1,1.32.12l-.31,1.53a21.52,21.52,0,0,0-2.73-.07h-2.85c-2.56,0-3-.61-3-3.58v-5.87h1.35v5.39c0,1.72.19,2.48,1.81,2.48h3.06c-.09-1.11-.28-5.09-.26-6.31l.24-1.56h1.37a15.64,15.64,0,0,0,1.72-.07Z" transform="translate(-39.76 -149.48)"/><path class="cls-12" d="M113.76,204.87a5.51,5.51,0,0,0-1.09,2.66c0,.58.33.77,1.13,1,.41.13.76.23,1.06.35l-.3,1.53a8.71,8.71,0,0,0-1-.29c-1.66-.37-2.23-.89-2.23-2.18a6.8,6.8,0,0,1,1.37-3.58Z" transform="translate(-39.76 -149.48)"/><path class="cls-12" d="M110,202.23a23.68,23.68,0,0,1-2.75.09H104.6c0,1.18,0,2.83,0,3.72,0,1.86.24,2.57,1.89,2.57H108a10.11,10.11,0,0,1,1.92.11l-.31,1.54a16.38,16.38,0,0,0-2.22-.07H106c-2.48,0-2.76-1.14-2.76-3.53V203.8c0-.37,0-1.18.07-1.48h-1.27l.3-1.58H108c.75,0,1.84,0,2.24-.05Z" transform="translate(-39.76 -149.48)"/><rect class="cls-4" x="10.52" y="291.21" width="74.68" height="25.81" rx="6.67"/><rect class="cls-4" x="10.52" y="256.8" width="74.68" height="25.81" rx="6.67"/><rect class="cls-4" x="95.31" y="291.6" width="74.68" height="25.81" rx="6.67"/><rect class="cls-4" x="95.31" y="257.19" width="74.68" height="25.81" rx="6.67"/><path class="cls-5" d="M69.92,423.07c-1.22,0-2.12-.43-2.12-1.36a3.44,3.44,0,0,1,.39-1.36c.48-1,1.71-2.1,3.71-3.2l-.07-.88a10.36,10.36,0,0,1,.92-.95h.13c0,1.8,0,3.62.07,5.42,0,.82.09,1.34.44,1.64a1.85,1.85,0,0,0,1.22.31h.28v1.49h-.26a2.16,2.16,0,0,1-2.4-1.62A5.62,5.62,0,0,1,69.92,423.07ZM72,418.44c-2.07,1.07-3.15,1.93-3.15,2.55,0,.45.69.65,1.49.65a5.36,5.36,0,0,0,1.72-.33Zm-1.37-4.12c-.48-.46-.9-.83-1.37-1.21a11.3,11.3,0,0,1,.92-1.11,10.3,10.3,0,0,1,1.33,1.25A6.71,6.71,0,0,1,70.61,414.32Zm2.24-.15c-.47-.46-.89-.83-1.36-1.21a10,10,0,0,1,.92-1.11,11.72,11.72,0,0,1,1.33,1.24A6.41,6.41,0,0,1,72.85,414.17Z" transform="translate(-39.76 -149.48)"/><path class="cls-5" d="M84.28,419.2a13.51,13.51,0,0,1,.19,2.07,3.9,3.9,0,0,1-.42,1.59,2.23,2.23,0,0,1-1.73,1.28,2,2,0,0,1-1.45-1h-.09a2.74,2.74,0,0,1-2,1,1,1,0,0,1-1.12-1h-.05a3.13,3.13,0,0,1-2.48,1H74.9a.75.75,0,0,1-.82-.78.73.73,0,0,1,.82-.71h.39a2.77,2.77,0,0,0,2.46-1.08l.64-.92.9-.32,0,.06a4.42,4.42,0,0,0-.79,1.68.56.56,0,0,0,.61.58,1.86,1.86,0,0,0,1-.34c.41-.3.47-.64.83-1.85l.7-.41.07.05a4.7,4.7,0,0,0-.15,1.14,1.26,1.26,0,0,0,1.21,1.34.55.55,0,0,0,.61-.53,10.57,10.57,0,0,0-.29-1.88,8.68,8.68,0,0,1,1-1Z" transform="translate(-39.76 -149.48)"/><path class="cls-5" d="M88.44,418.17l.83,1.57a4.41,4.41,0,0,1,.58,2.21v1.29a5.33,5.33,0,0,1-1.47,3.23,2.75,2.75,0,0,1-1.92,1.06,6.73,6.73,0,0,1-3-.9l.13-.39a4,4,0,0,0,1.29.21A5,5,0,0,0,89,423.3a1.27,1.27,0,0,0,.13-.51,1.92,1.92,0,0,0-.17-.61,18.34,18.34,0,0,0-1.39-2.57c.26-.5.53-1,.82-1.45Z" transform="translate(-39.76 -149.48)"/><path class="cls-5" d="M99.77,424.18h-.22a2.3,2.3,0,0,1-2.37-1.9h-.06a1.66,1.66,0,0,1-.84,1.12,4.69,4.69,0,0,1-2.34.78,1.9,1.9,0,0,1-2-2.16c0-.29,0-.57,0-.86l.45,0a1.47,1.47,0,0,0,1.65,1.56,4.17,4.17,0,0,0,1.89-.58c.43-.25.76-.6.76-.88a22.84,22.84,0,0,0-1-4.33c.27-.41.53-.82.83-1.2l.07.05c.43,1.68.79,3.47,1.11,5.18a1.9,1.9,0,0,0,1.84,1.76h.19Z" transform="translate(-39.76 -149.48)"/><path class="cls-5" d="M100,422.69c.86,0,1.53-.6,1.95-2.06a3.51,3.51,0,0,1,.86-1.41,2.17,2.17,0,0,1,1.47-.68c1.42,0,2.26,2,2.45,4-.25,1.06-.68,1.5-1.24,1.5a6,6,0,0,1-3.46-1.38H102a1.9,1.9,0,0,1-2,1.52h-.2a.75.75,0,0,1-.82-.78.73.73,0,0,1,.82-.71Zm4.07-.47a3.6,3.6,0,0,0,1.39.34c.17,0,.32,0,.37-.13-.34-1.76-1.11-2.54-1.84-2.54a1.69,1.69,0,0,0-1.56,1.14A3.49,3.49,0,0,0,104.11,422.22Z" transform="translate(-39.76 -149.48)"/><path class="cls-5" d="M156.61,423.07c-1.22,0-2.12-.43-2.12-1.36a3.57,3.57,0,0,1,.38-1.36c.49-1,1.72-2.1,3.72-3.2l-.07-.88a10.36,10.36,0,0,1,.92-.95h.13c0,1.8,0,3.62.07,5.42,0,.82.09,1.34.44,1.64a1.85,1.85,0,0,0,1.22.31h.28v1.49h-.26a2.17,2.17,0,0,1-2.41-1.62A5.53,5.53,0,0,1,156.61,423.07Zm2.06-4.63c-2.07,1.07-3.16,1.93-3.16,2.55,0,.45.7.65,1.49.65a5.37,5.37,0,0,0,1.73-.33Zm-1.37-4.12c-.48-.46-.9-.83-1.37-1.21a11.3,11.3,0,0,1,.92-1.11,10.3,10.3,0,0,1,1.33,1.25A7.29,7.29,0,0,1,157.3,414.32Zm2.24-.15c-.47-.46-.89-.83-1.36-1.21a10,10,0,0,1,.92-1.11,11.72,11.72,0,0,1,1.33,1.24A6.41,6.41,0,0,1,159.54,414.17Z" transform="translate(-39.76 -149.48)"/><path class="cls-5" d="M171,419.2a13.51,13.51,0,0,1,.19,2.07,3.9,3.9,0,0,1-.42,1.59,2.23,2.23,0,0,1-1.73,1.28,2,2,0,0,1-1.45-1h-.09a2.74,2.74,0,0,1-2,1,1,1,0,0,1-1.12-1h-.05a3.13,3.13,0,0,1-2.48,1h-.19a.75.75,0,0,1-.82-.78.73.73,0,0,1,.82-.71H162a2.77,2.77,0,0,0,2.46-1.08l.64-.92.9-.32,0,.06a4.42,4.42,0,0,0-.79,1.68.55.55,0,0,0,.61.58,1.86,1.86,0,0,0,1-.34c.41-.3.47-.64.83-1.85l.7-.41.07.05a4.7,4.7,0,0,0-.15,1.14,1.26,1.26,0,0,0,1.21,1.34.55.55,0,0,0,.61-.53,10.57,10.57,0,0,0-.29-1.88,8.68,8.68,0,0,1,1.05-1Z" transform="translate(-39.76 -149.48)"/><path class="cls-5" d="M175.13,418.17l.83,1.57a4.41,4.41,0,0,1,.58,2.21v1.29a5.33,5.33,0,0,1-1.47,3.23,2.75,2.75,0,0,1-1.92,1.06,6.73,6.73,0,0,1-3-.9l.13-.39a4,4,0,0,0,1.29.21,5,5,0,0,0,4.09-3.15,1.24,1.24,0,0,0,.12-.51,1.9,1.9,0,0,0-.16-.61,17.39,17.39,0,0,0-1.4-2.57c.27-.5.54-1,.83-1.45Z" transform="translate(-39.76 -149.48)"/><path class="cls-5" d="M186.46,424.18h-.22a2.3,2.3,0,0,1-2.37-1.9h-.06a1.66,1.66,0,0,1-.84,1.12,4.69,4.69,0,0,1-2.34.78,1.91,1.91,0,0,1-2-2.16c0-.29,0-.57,0-.86l.45,0a1.47,1.47,0,0,0,1.65,1.56,4.17,4.17,0,0,0,1.89-.58c.43-.25.76-.6.76-.88a22.84,22.84,0,0,0-1-4.33c.27-.41.53-.82.83-1.2l.07.05c.43,1.68.79,3.47,1.11,5.18a1.9,1.9,0,0,0,1.84,1.76h.19Z" transform="translate(-39.76 -149.48)"/><path class="cls-5" d="M186.73,422.69c.86,0,1.53-.6,2-2.06a3.51,3.51,0,0,1,.86-1.41,2.17,2.17,0,0,1,1.47-.68c1.42,0,2.26,2,2.44,4-.24,1.06-.67,1.5-1.23,1.5a6,6,0,0,1-3.46-1.38h-.08a1.91,1.91,0,0,1-2,1.52h-.2a.75.75,0,0,1-.82-.78.73.73,0,0,1,.82-.71Zm4.07-.47a3.6,3.6,0,0,0,1.39.34c.17,0,.32,0,.37-.13-.34-1.76-1.11-2.54-1.84-2.54a1.69,1.69,0,0,0-1.56,1.14A3.49,3.49,0,0,0,190.8,422.22Z" transform="translate(-39.76 -149.48)"/><path class="cls-5" d="M153.72,457.39c-1.22,0-2.12-.43-2.12-1.36a3.44,3.44,0,0,1,.39-1.36c.49-1,1.71-2.1,3.71-3.21l-.07-.87a10.4,10.4,0,0,1,.92-.95h.13c0,1.8,0,3.62.07,5.42,0,.82.09,1.34.44,1.64a1.86,1.86,0,0,0,1.23.31h.27v1.49h-.25a2.18,2.18,0,0,1-2.41-1.62A5.62,5.62,0,0,1,153.72,457.39Zm2.06-4.63c-2.07,1.07-3.15,1.93-3.15,2.55,0,.45.7.65,1.49.65a5.65,5.65,0,0,0,1.72-.33Zm-1.37-4.12c-.48-.46-.9-.83-1.36-1.22a10.88,10.88,0,0,1,.92-1.1,11.66,11.66,0,0,1,1.32,1.24A5.94,5.94,0,0,1,154.41,448.64Zm2.25-.16c-.48-.45-.9-.82-1.37-1.21a11.1,11.1,0,0,1,.92-1.1,10.2,10.2,0,0,1,1.33,1.24A5.92,5.92,0,0,1,156.66,448.48Z" transform="translate(-39.76 -149.48)"/><path class="cls-5" d="M168.08,453.51a13.72,13.72,0,0,1,.19,2.08,3.94,3.94,0,0,1-.42,1.59,2.22,2.22,0,0,1-1.72,1.28,2,2,0,0,1-1.46-1h-.09a2.72,2.72,0,0,1-2,1,1,1,0,0,1-1.12-1h0a3.14,3.14,0,0,1-2.48,1h-.2a.75.75,0,0,1-.82-.78.73.73,0,0,1,.82-.71h.4a2.75,2.75,0,0,0,2.45-1.09l.64-.92.9-.31,0,.06a4.37,4.37,0,0,0-.8,1.67.56.56,0,0,0,.61.59,1.89,1.89,0,0,0,1-.34c.4-.3.46-.64.82-1.85l.7-.41.07,0a5.26,5.26,0,0,0-.15,1.14,1.26,1.26,0,0,0,1.21,1.34.55.55,0,0,0,.62-.53,10.57,10.57,0,0,0-.29-1.88,8,8,0,0,1,1-1Z" transform="translate(-39.76 -149.48)"/><path class="cls-5" d="M172.25,452.49l.82,1.57a4.41,4.41,0,0,1,.58,2.21v1.28a5.32,5.32,0,0,1-1.46,3.24,2.75,2.75,0,0,1-1.92,1.06,6.77,6.77,0,0,1-3-.9l.13-.39a4.29,4.29,0,0,0,1.29.21,5,5,0,0,0,4.09-3.15,1.27,1.27,0,0,0,.13-.51,2,2,0,0,0-.16-.62,18.82,18.82,0,0,0-1.4-2.56c.27-.5.53-1,.83-1.45Z" transform="translate(-39.76 -149.48)"/><path class="cls-5" d="M183.58,458.5h-.22a2.32,2.32,0,0,1-2.38-1.9h-.06a1.65,1.65,0,0,1-.84,1.12,4.66,4.66,0,0,1-2.34.78,1.9,1.9,0,0,1-2-2.16c0-.29,0-.57,0-.86l.46,0a1.45,1.45,0,0,0,1.64,1.56,4.1,4.1,0,0,0,1.9-.59c.43-.24.75-.59.75-.87a23.41,23.41,0,0,0-1-4.33c.27-.41.52-.83.82-1.2l.07.05c.43,1.67.8,3.47,1.11,5.18a1.91,1.91,0,0,0,1.84,1.76h.2Z" transform="translate(-39.76 -149.48)"/><path class="cls-5" d="M183.84,457c.86,0,1.54-.6,1.95-2.06a3.54,3.54,0,0,1,.87-1.41,2.15,2.15,0,0,1,1.46-.68c1.42,0,2.26,2,2.45,4-.25,1.06-.68,1.5-1.24,1.5a6,6,0,0,1-3.45-1.38h-.09a1.9,1.9,0,0,1-2,1.52h-.2a.75.75,0,0,1-.81-.78.72.72,0,0,1,.81-.71Zm4.07-.47a3.64,3.64,0,0,0,1.39.34c.17,0,.33,0,.37-.13-.34-1.76-1.1-2.54-1.84-2.54a1.68,1.68,0,0,0-1.56,1.14A3.54,3.54,0,0,0,187.91,456.54Z" transform="translate(-39.76 -149.48)"/><path class="cls-5" d="M70.53,457.39c-1.23,0-2.12-.43-2.12-1.36a3.39,3.39,0,0,1,.38-1.36c.49-1,1.71-2.1,3.71-3.21l-.06-.87a10.32,10.32,0,0,1,.91-.95h.13c0,1.8,0,3.62.07,5.42,0,.82.1,1.34.45,1.64a1.83,1.83,0,0,0,1.22.31h.28v1.49h-.26a2.18,2.18,0,0,1-2.41-1.62A5.57,5.57,0,0,1,70.53,457.39Zm2.06-4.63c-2.08,1.07-3.16,1.93-3.16,2.55,0,.45.7.65,1.49.65a5.6,5.6,0,0,0,1.72-.33Zm-1.38-4.12c-.47-.46-.89-.83-1.36-1.22a10.88,10.88,0,0,1,.92-1.1,11.72,11.72,0,0,1,1.33,1.24A6.41,6.41,0,0,1,71.21,448.64Zm2.25-.16c-.48-.45-.9-.82-1.36-1.21a9.88,9.88,0,0,1,.92-1.1,10.82,10.82,0,0,1,1.32,1.24A5.53,5.53,0,0,1,73.46,448.48Z" transform="translate(-39.76 -149.48)"/><path class="cls-5" d="M84.89,453.51a13.46,13.46,0,0,1,.18,2.08,3.94,3.94,0,0,1-.42,1.59,2.2,2.2,0,0,1-1.72,1.28,1.94,1.94,0,0,1-1.45-1h-.1a2.71,2.71,0,0,1-2,1,1,1,0,0,1-1.11-1h0a3.14,3.14,0,0,1-2.48,1h-.2a.75.75,0,0,1-.81-.78.72.72,0,0,1,.81-.71h.4a2.73,2.73,0,0,0,2.45-1.09L79,455l.89-.31,0,.06a4.3,4.3,0,0,0-.79,1.67.55.55,0,0,0,.6.59,1.89,1.89,0,0,0,1-.34c.41-.3.46-.64.82-1.85l.7-.41.07,0a5.26,5.26,0,0,0-.15,1.14,1.26,1.26,0,0,0,1.21,1.34.55.55,0,0,0,.62-.53,10.57,10.57,0,0,0-.29-1.88,7.44,7.44,0,0,1,1-1Z" transform="translate(-39.76 -149.48)"/><path class="cls-5" d="M89.05,452.49l.82,1.57a4.31,4.31,0,0,1,.59,2.21v1.28A5.33,5.33,0,0,1,89,460.79a2.75,2.75,0,0,1-1.92,1.06,6.73,6.73,0,0,1-3-.9l.12-.39a4.36,4.36,0,0,0,1.3.21,5,5,0,0,0,4.08-3.15,1.13,1.13,0,0,0,.13-.51,2,2,0,0,0-.16-.62,18.82,18.82,0,0,0-1.4-2.56c.27-.5.54-1,.83-1.45Z" transform="translate(-39.76 -149.48)"/><path class="cls-5" d="M100.38,458.5h-.22a2.32,2.32,0,0,1-2.38-1.9h0a1.71,1.71,0,0,1-.84,1.12,4.69,4.69,0,0,1-2.34.78,1.9,1.9,0,0,1-2-2.16,8.25,8.25,0,0,1,0-.86l.45,0A1.46,1.46,0,0,0,94.65,457a4.1,4.1,0,0,0,1.9-.59c.43-.24.76-.59.76-.87a22.84,22.84,0,0,0-1-4.33,12.76,12.76,0,0,1,.83-1.2l.07.05c.43,1.67.79,3.47,1.1,5.18a1.91,1.91,0,0,0,1.84,1.76h.2Z" transform="translate(-39.76 -149.48)"/><path class="cls-5" d="M100.64,457c.86,0,1.54-.6,2-2.06a3.51,3.51,0,0,1,.86-1.41,2.17,2.17,0,0,1,1.47-.68c1.42,0,2.26,2,2.44,4-.24,1.06-.67,1.5-1.23,1.5a6,6,0,0,1-3.46-1.38h-.08a1.92,1.92,0,0,1-2,1.52h-.19a.75.75,0,0,1-.82-.78.73.73,0,0,1,.82-.71Zm4.08-.47a3.59,3.59,0,0,0,1.38.34c.18,0,.33,0,.37-.13-.33-1.76-1.1-2.54-1.83-2.54a1.66,1.66,0,0,0-1.56,1.14A3.44,3.44,0,0,0,104.72,456.54Z" transform="translate(-39.76 -149.48)"/><rect class="cls-1" x="583.46" y="0.41" width="183.96" height="336.51"/><g class="cls-6"><rect class="cls-11" x="700.88" y="159.76" width="30.32" height="30.32" rx="6.67" transform="translate(1392.31 200.36) rotate(180)"/><polyline class="cls-16" points="668.21 32.55 676.96 18.33 684.35 22.84"/></g><rect class="cls-4" x="659.44" y="296.73" width="30.32" height="30.32" rx="6.67"/><polyline class="cls-17" points="682.67 302.53 673.91 316.76 666.53 312.24"/><path class="cls-18" d="M695.66,209.28c14.25-.33,23.34,2.3,35.91-.36,10.17-2.16,27.39,6.83,27,19.51-.47,0,1.17,15.13-3.47,21.69-1.11,1.58-10.48,19.45-19.69,24.07a1.38,1.38,0,0,1-.35.14c-2,.57-5.55-2.42-6.21-5.06-1.19-4.82,7.48-7.66,11.3-18.78.71-2.05,1.91-5.67.37-7.11-1.78-1.67-6.09.61-9.12,1.82-11.13,4.45-22.86,3.1-35.92-2-8.35-3.27-14.31-4.41-19.5-9.84-3.11-3.25-2.18-13.78.36-16.41C677.78,215.44,681.4,209.62,695.66,209.28Z" transform="translate(-39.76 -149.48)"/><path class="cls-4" d="M733.58,233.8c-.92,10.49-9.22,23.09-18,21.25-5.45-1.15-15.6-11.07-18-21.25-2.9-12.52,9.47-21.85,18-21.24A19.58,19.58,0,0,1,733.58,233.8Z" transform="translate(-39.76 -149.48)"/><path class="cls-12" d="M728.58,268.21l6.52,5.32-1.24,1.53-.51,3.27-4.07,5.26c-1.17,1.28-2.37.94-3.6-.1l.92-1.12c-1.41,1.77-2.7,2.14-3.82.65l1.41-1.68c-1.37,2-2.69,2.61-3.93.89l2.16-2.64-3.6,4.41c-2.3,2.09-4.49.26-2.74-2.23,0,0,5.49-6.47,5.59-6.85.42-.52-.64.52-.64.52l-1.76,0c-2.16-.5-2.07-1.48-.38-2.81l3.12-.55a17.51,17.51,0,0,1,5.2-2.21Z" transform="translate(-39.76 -149.48)"/><path class="cls-18" d="M735.83,427c-14.25.34-23.35-2.3-35.92.37-10.16,2.15-27.39-6.83-27-19.51.47-.06-1.18-15.13,3.46-21.7,1.12-1.58,10.49-19.45,19.69-24.07a3.09,3.09,0,0,1,.35-.14c2-.57,5.56,2.42,6.21,5.07,1.2,4.82-7.48,7.65-11.3,18.78-.7,2-1.91,5.66-.36,7.11,1.77,1.66,6.08-.61,9.11-1.83,11.13-4.45,22.86-3.1,35.92,2,8.36,3.27,14.32,4.41,19.51,9.84,3.1,3.25,2.17,13.78-.37,16.41C753.71,420.85,750.08,426.67,735.83,427Z" transform="translate(-39.76 -149.48)"/><path class="cls-4" d="M697.9,402.49c.93-10.49,9.22-23.08,18-21.24,5.45,1.15,15.6,11.06,18,21.24,2.9,12.52-9.46,21.85-18,21.25A19.6,19.6,0,0,1,697.9,402.49Z" transform="translate(-39.76 -149.48)"/><path class="cls-12" d="M702.9,368.08l-6.52-5.32,1.24-1.52.51-3.28,4.07-5.26c1.17-1.28,2.38-.94,3.6.11l-.91,1.11c1.4-1.76,2.69-2.14,3.82-.65L707.3,355c1.36-2,2.68-2.6,3.92-.89l-2.15,2.64,3.6-4.41c2.29-2.08,4.48-.26,2.74,2.23,0,0-5.5,6.47-5.59,6.86-.42.51.64-.52.64-.52l1.76,0c2.15.49,2.06,1.47.37,2.8l-3.11.56a17.82,17.82,0,0,1-5.21,2.2Z" transform="translate(-39.76 -149.48)"/><rect class="cls-19" x="658.75" y="141.61" width="31.7" height="54.11" rx="3.03"/><circle class="cls-5" cx="674.6" cy="191.92" r="1.93"/><rect class="cls-5" x="660.76" y="147.95" width="27.69" height="40.79"/><rect class="cls-19" x="671.67" y="162.77" width="6.9" height="11.78" rx="0.87"/><rect class="cls-5" x="672.49" y="164.27" width="5.26" height="7.75"/><path class="cls-4" d="M717.52,307.37c-.16,1.83-1.61,4-3.13,3.7a5.67,5.67,0,0,1-3.13-3.7,3.16,3.16,0,0,1,3.13-3.7A3.41,3.41,0,0,1,717.52,307.37Z" transform="translate(-39.76 -149.48)"/><path class="cls-4" d="M711.2,328.54c.16-1.83,1.61-4,3.13-3.7a5.67,5.67,0,0,1,3.13,3.7,3.17,3.17,0,0,1-3.13,3.7A3.4,3.4,0,0,1,711.2,328.54Z" transform="translate(-39.76 -149.48)"/><rect class="cls-20" x="673.56" y="184.63" width="2.07" height="2.07" rx="0.37"/><rect class="cls-20" x="673.56" y="149.42" width="2.07" height="2.07" rx="0.37"/><path class="cls-21" d="M705.4,407.52c-1,0-1.68-.34-1.68-1.08a2.82,2.82,0,0,1,.31-1.08,6.66,6.66,0,0,1,2.94-2.53l-.06-.69a7.55,7.55,0,0,1,.73-.76h.1c0,1.43,0,2.87.06,4.29,0,.65.07,1.06.35,1.3a1.46,1.46,0,0,0,1,.24h.22v1.18h-.21a1.71,1.71,0,0,1-1.9-1.28A4.44,4.44,0,0,1,705.4,407.52Zm1.63-3.67c-1.64.85-2.49,1.53-2.49,2s.55.51,1.17.51a4.54,4.54,0,0,0,1.37-.25Z" transform="translate(-39.76 -149.48)"/><path class="cls-21" d="M709.54,407.21c.71,0,1.45-.28,1.59-.81l.27-1L712,405l.06.06a5.05,5.05,0,0,0-.21,1.07.94.94,0,0,0,.31.77,1.75,1.75,0,0,0,1.14.36h.17v1.18h-.21a1.85,1.85,0,0,1-1.9-.94h0a2,2,0,0,1-1.83.94h-.18a.58.58,0,0,1-.64-.61.57.57,0,0,1,.64-.57Zm1,4.86c-.37-.36-.7-.65-1.07-1a8.54,8.54,0,0,1,.72-.87,8.73,8.73,0,0,1,1.06,1A4.9,4.9,0,0,1,710.58,412.07Zm1.78-.12c-.37-.36-.71-.65-1.07-1a8.54,8.54,0,0,1,.72-.87,8,8,0,0,1,1,1A4.47,4.47,0,0,1,712.36,412Z" transform="translate(-39.76 -149.48)"/><path class="cls-21" d="M713.66,407.21a5.86,5.86,0,0,0,1.81-.17c.32-.12.53-.25.53-.41a7.63,7.63,0,0,0-.92-2.27,6.7,6.7,0,0,1,.69-1h0a6.37,6.37,0,0,1,.93,2.81,2.75,2.75,0,0,1-.65,1.71c-.42.42-1.07.55-2.48.55h-.11a.59.59,0,0,1-.65-.61.58.58,0,0,1,.65-.57Zm1.74,2.93a7.1,7.1,0,0,1,1.1,1,3.84,3.84,0,0,1-.76.91c-.36-.35-.72-.64-1.09-.95C714.9,410.74,715.15,410.42,715.4,410.14Z" transform="translate(-39.76 -149.48)"/><path class="cls-21" d="M721.21,405.22c.52,1.27,1,2,2.07,2h.17v1.18h-.2a1.3,1.3,0,0,1-.93-.29h0c0,.11,0,.22,0,.32a3.19,3.19,0,0,1-.36,1.43c-.73,1.28-1.52,1.83-2.21,1.83a5.28,5.28,0,0,1-2.3-.72l.14-.31a2.43,2.43,0,0,0,1.06.2,3.66,3.66,0,0,0,3.06-2.76,2.28,2.28,0,0,0-.25-.42,8.44,8.44,0,0,1-.8-1.37c.18-.42.35-.76.5-1.07Z" transform="translate(-39.76 -149.48)"/><path class="cls-21" d="M724,407.21a5.11,5.11,0,0,0,1.37-.19v0a2.09,2.09,0,0,1-1.08-1.8,2.36,2.36,0,0,1,.39-1.21,2.29,2.29,0,0,1,1.91-1.23,2.36,2.36,0,0,1,2,1.5l-.18.18a2.31,2.31,0,0,0-1.65-.59c-1,0-1.68.45-1.68.78a1.73,1.73,0,0,0,.79,1.31,2.38,2.38,0,0,0,1.11.49,9.24,9.24,0,0,0,2.64-.65l0,0-.49,1.15c-1.45.51-2.15.59-3.27,1a7.74,7.74,0,0,1-2.25.49h-.29a.58.58,0,0,1-.64-.61.57.57,0,0,1,.64-.57Z" transform="translate(-39.76 -149.48)"/><path class="cls-21" d="M726.94,231.83a3.86,3.86,0,0,1-.71,0h-.13c0,.84.08,2.57.14,3.12h0a2.85,2.85,0,0,1,.66.06l-.16.75a10.63,10.63,0,0,0-1.35,0H724c-1.26,0-1.5-.3-1.5-1.77v-2.91h.67v2.67c0,.85.09,1.23.89,1.23h1.52c-.05-.55-.14-2.52-.13-3.13l.12-.77h.68a6.51,6.51,0,0,0,.85,0Z" transform="translate(-39.76 -149.48)"/><path class="cls-21" d="M721.32,233.14a2.71,2.71,0,0,0-.54,1.31c0,.29.17.38.56.49a5.38,5.38,0,0,1,.53.18l-.15.75c-.12,0-.29-.09-.51-.14-.82-.18-1.1-.44-1.1-1.08a3.37,3.37,0,0,1,.68-1.77Z" transform="translate(-39.76 -149.48)"/><path class="cls-21" d="M716.81,233.76c0,.85.09,1.23.9,1.23h.85a4.66,4.66,0,0,1,1,0l-.15.76a11.06,11.06,0,0,0-1.2,0h-.53c-1.26,0-1.5-.3-1.5-1.77v-2.91h.67Z" transform="translate(-39.76 -149.48)"/><path class="cls-21" d="M715.19,231.83a13.1,13.1,0,0,1-1.36,0h-1.31c0,.59,0,1.4,0,1.84,0,.92.12,1.28.94,1.28h.74a4.79,4.79,0,0,1,1,0l-.15.76a9.65,9.65,0,0,0-1.11,0h-.68c-1.23,0-1.36-.57-1.36-1.75V232.6c0-.18,0-.58,0-.73h-.63l.15-.78h2.8c.37,0,.92,0,1.11,0Z" transform="translate(-39.76 -149.48)"/><path class="cls-21" d="M709,231.87a18.9,18.9,0,0,0,1.8,3.86l-.91.07a18.59,18.59,0,0,1-1.51-3.73c-.64.27-1,.83-1,1.88a5.18,5.18,0,0,0,.36,1.78l-.85.08a5.24,5.24,0,0,1-.23-1.63,2.74,2.74,0,0,1,1.73-2.88,9.61,9.61,0,0,1,2.47-.61l-.14.85A9.39,9.39,0,0,0,709,231.87Z" transform="translate(-39.76 -149.48)"/></svg>