<svg id="Layer_1" data-name="Layer 1" xmlns="http://www.w3.org/2000/svg" viewBox="0 0 31.7 54.11"><defs><style>.cls-1{fill:#1d1d1b;}.cls-2{fill:#fff;}.cls-3{fill:#ec9b6a;}.cls-4{fill:none;stroke:#ec9b6a;stroke-miterlimit:10;stroke-width:0.21px;}</style></defs><rect class="cls-1" width="31.7" height="54.11" rx="3.03"/><circle class="cls-2" cx="15.85" cy="50.31" r="1.93"/><rect class="cls-2" x="2.01" y="6.34" width="27.69" height="40.79"/><rect class="cls-1" x="12.92" y="21.16" width="6.9" height="11.78" rx="0.87"/><rect class="cls-2" x="13.75" y="22.66" width="5.26" height="7.75"/><path class="cls-3" d="M20.24,17.35c-.17,1.83-1.61,4-3.13,3.71A5.67,5.67,0,0,1,14,17.35a3.17,3.17,0,0,1,3.13-3.7A3.42,3.42,0,0,1,20.24,17.35Z" transform="translate(-1.23 -1.08)"/><path class="cls-3" d="M13.92,38.53c.16-1.83,1.6-4,3.13-3.7a5.66,5.66,0,0,1,3.12,3.7,3.16,3.16,0,0,1-3.12,3.7A3.41,3.41,0,0,1,13.92,38.53Z" transform="translate(-1.23 -1.08)"/><rect class="cls-4" x="14.82" y="43.02" width="2.07" height="2.07" rx="0.37"/><rect class="cls-4" x="14.82" y="7.81" width="2.07" height="2.07" rx="0.37"/></svg>