<svg id="Layer_1" data-name="Layer 1" xmlns="http://www.w3.org/2000/svg" viewBox="0 0 234.87 188.75"><defs><style>.cls-1{fill:#ec9b6a;}.cls-2{fill:none;stroke:#fff;stroke-width:3.21px;}.cls-2,.cls-3,.cls-4{stroke-miterlimit:10;}.cls-3{fill:#d7e2e8;stroke:#b2d1d6;stroke-width:1.93px;}.cls-4{fill:#f4d8b8;stroke:#e5a480;}</style></defs><circle class="cls-1" cx="90.89" cy="91.56" r="90.89"/><path class="cls-2" d="M69.62,173.91c2-5,6.69-11.11,11.88-17.42,5.23-4.72,14.68-9.54,19-13.91,5.08-5,11.79-14.38,7.11-16.73-3.2-1.6-9.69,10.36-13.45,10.21-1.67-.07,4.22-9.6,7.2-14.82s3.55-6.85,3.65-9.23c.14-3.73-4-3.94-5.58-1.55a153.46,153.46,0,0,0-8.72,16.11c-3.07,3.43-4.8,3.9-4.41-2l6.62-18c4.26-7.29-6.06-12-8.39-2.07-2.6,11-5.86,16.49-5.86,16.49-.39,1.42-5.82,10.8-3.71-2.19,0,0,.9-2.34,2.72-12.07s-7.53-12.59-9.06-.84-1.94,20.06-1.94,20.06c-.43,4.92-3.37,7.52-4.94-.92-3.11-16.82-12-14.25-6.86,6a28.78,28.78,0,0,0,4.58,9.15c-1.39,7.45-3.19,14.32-5.84,20" transform="translate(-0.72 -4.17)"/><path class="cls-2" d="M127.38,18.33c-2.71,4.63-8.32,10-14.42,15.38-5.9,3.86-16,7.16-20.92,10.81C86.26,48.63,78.17,56.91,82.43,60c2.93,2.08,11.18-8.74,14.87-8,1.64.33-5.65,8.83-9.4,13.53s-4.57,6.22-5,8.56c-.72,3.66,3.3,4.5,5.27,2.39A154.26,154.26,0,0,0,99.25,61.85c3.56-2.92,5.34-3.12,4,2.62L94,81.28c-5.33,6.54,4.14,12.75,8,3.34,4.27-10.5,8.33-15.39,8.33-15.39.62-1.34,7.43-9.77,3.34,2.74,0,0-1.26,2.17-4.55,11.5s5.49,13.61,8.82,2.23,5-19.52,5-19.52c1.18-4.8,4.49-6.91,4.73,1.68.49,17.09,9.67,15.93,7.7-4.83a28.91,28.91,0,0,0-3.1-9.75c2.52-7.14,5.35-13.65,8.85-18.83" transform="translate(-0.72 -4.17)"/><path class="cls-3" d="M212.31,177.2h8.61c3.09,7.37-3.37,15.05-11.1,14.74-11.68.56-17.21-15.82-8.41-23,3.43-3.27,12.77-2.5,17.78-2.56C229.4,166,237,175,233.33,184.83h-8.54c5-10.79-8.48-9-14.87-9-3.73-.29-5.12,3.24-2.9,5.56C209.83,184.27,214.31,180.56,212.31,177.2Z" transform="translate(-0.72 -4.17)"/><path class="cls-3" d="M213.24,147H223c2.65,12.34-13.58,20.52-22.08,11.49-5.1-4.64-4.94-14.4-.24-18.83,4.18-5.07,16-3.18,22-3.51v9.4c-2.39.33-13-.88-14.77,1C202.38,153.5,217.15,155.46,213.24,147Z" transform="translate(-0.72 -4.17)"/><path class="cls-3" d="M211.1,115.29l-.35-9.32c16.93.83,15.9,26.26-.85,26-15.35.1-17.46-23.14-2.31-25.82l.35,9.52c-3,2-1.54,7,2.11,6.78C214.19,122.61,215.56,116.49,211.1,115.29Z" transform="translate(-0.72 -4.17)"/><path class="cls-3" d="M188.35,92.48h10.47c-8.36-15.94,15.29-12.31,23.81-12.63v9.39H209.4c-1.74.09-2.64,0-2.72,1.66-.75,3,14.55,1,15.95,1.58v9.39H188.35Z" transform="translate(-0.72 -4.17)"/><path class="cls-3" d="M233.61,71.13h-8.16c1.86-4.13.5-8.11-4.35-9.27,7.35,16-14.7,12.58-23.51,12.84V65.3h13.46c1.49,0,2.24-.61,2.24-1.85.89-3.32-14.16-1.25-15.7-1.79V52.27c7.18.79,27.14-2.49,32.45,3.51A13.58,13.58,0,0,1,233.61,71.13Z" transform="translate(-0.72 -4.17)"/><path class="cls-3" d="M213.24,32.88H223c2.65,12.34-13.58,20.51-22.08,11.49-5.1-4.65-4.94-14.4-.24-18.84,4.18-5.06,16-3.17,22-3.5v9.39c-2.39.33-13-.87-14.77,1C202.38,39.4,217.15,41.35,213.24,32.88Z" transform="translate(-0.72 -4.17)"/><path class="cls-4" d="M218.63,12a5.69,5.69,0,0,1,2.09-4.05,5.75,5.75,0,0,1,4.34-1.43,5.66,5.66,0,0,1,4,2.06,5.83,5.83,0,0,1,1.37,4.34,5.68,5.68,0,0,1-6.32,5.42,5.79,5.79,0,0,1-4.09-2A5.64,5.64,0,0,1,218.63,12ZM184.46,4.71l31.87,2.64-.62,8.08-31.92-2Z" transform="translate(-0.72 -4.17)"/></svg>