<svg id="Layer_1" data-name="Layer 1" xmlns="http://www.w3.org/2000/svg" viewBox="0 0 84.56 76.31"><defs><style>.cls-1{fill:#e8b497;}.cls-2{fill:#ec9b6a;}.cls-3{fill:#b2d1d6;}.cls-4{fill:#fbfdff;}</style></defs><path class="cls-1" d="M26.12,6.65C40.37,6.31,49.47,9,62,6.29c10.16-2.16,27.39,6.82,27,19.5-.47.06,1.18,15.13-3.46,21.7-1.12,1.58-10.49,19.45-19.69,24.07a3.09,3.09,0,0,1-.35.14c-2,.57-5.56-2.42-6.22-5.07C58.11,61.82,66.79,59,70.61,47.86c.7-2,1.9-5.67.36-7.12-1.77-1.66-6.08.62-9.11,1.83C50.72,47,39,45.67,25.94,40.56c-8.36-3.27-14.32-4.41-19.51-9.84-3.1-3.25-2.17-13.78.36-16.41C8.24,12.81,11.86,7,26.12,6.65Z" transform="translate(-4.47 -5.97)"/><path class="cls-2" d="M64.05,31.17c-.93,10.49-9.22,23.08-18,21.24-5.45-1.14-15.61-11.06-18-21.24-2.91-12.52,9.46-21.85,18-21.25A19.6,19.6,0,0,1,64.05,31.17Z" transform="translate(-4.47 -5.97)"/><path class="cls-3" d="M59.05,65.58l6.52,5.32-1.25,1.52-.5,3.28L59.74,81c-1.16,1.28-2.37.94-3.59-.1l.91-1.12c-1.41,1.77-2.69,2.14-3.82.65l1.41-1.68c-1.37,2-2.69,2.6-3.93.89L52.88,77l-3.6,4.41c-2.29,2.08-4.48.26-2.74-2.23,0,0,5.49-6.47,5.59-6.86.42-.51-.64.53-.64.53H49.73c-2.15-.49-2.06-1.47-.37-2.8l3.11-.56a17.76,17.76,0,0,1,5.2-2.2Z" transform="translate(-4.47 -5.97)"/><path class="cls-4" d="M58.55,29.82c1,0,1.68.34,1.68,1.08a2.77,2.77,0,0,1-.3,1.08A6.78,6.78,0,0,1,57,34.51l0,.69a7.55,7.55,0,0,1-.73.76h-.1c0-1.43,0-2.87-.05-4.3,0-.64-.08-1.06-.35-1.3a1.52,1.52,0,0,0-1-.24h-.22V28.94h.2a1.72,1.72,0,0,1,1.91,1.29A4.25,4.25,0,0,1,58.55,29.82Zm-1.63,3.67c1.64-.85,2.5-1.53,2.5-2S58.87,31,58.24,31a4.53,4.53,0,0,0-1.36.26Z" transform="translate(-4.47 -5.97)"/><path class="cls-4" d="M54.41,30.12c-.71,0-1.44.29-1.58.81l-.27,1-.64.46-.05-.06a4.87,4.87,0,0,0,.2-1.07.92.92,0,0,0-.3-.77,1.74,1.74,0,0,0-1.15-.37h-.16V28.94h.21a1.86,1.86,0,0,1,1.9.94h0a2,2,0,0,1,1.83-.94h.17a.6.6,0,0,1,.65.62.58.58,0,0,1-.65.56Zm-2.82-4.73c.38.36.71.65,1.08.95a7.75,7.75,0,0,1-.73.88,8,8,0,0,1-1-1A5.18,5.18,0,0,1,51.59,25.39Zm1.78-.12c.38.36.71.65,1.08,1a8.55,8.55,0,0,1-.73.87,8,8,0,0,1-1-1A5.18,5.18,0,0,1,53.37,25.27Z" transform="translate(-4.47 -5.97)"/><path class="cls-4" d="M50.3,30.12a5.91,5.91,0,0,0-1.82.18c-.32.12-.52.25-.52.4A7.56,7.56,0,0,0,48.88,33a6.7,6.7,0,0,1-.69,1h0a6.53,6.53,0,0,1-.92-2.81,2.75,2.75,0,0,1,.65-1.71c.41-.42,1.06-.56,2.48-.56h.11a.59.59,0,0,1,.64.62.57.57,0,0,1-.64.56ZM48.56,27.2a8.3,8.3,0,0,1-1.11-1,3.49,3.49,0,0,1,.77-.91c.36.34.71.64,1.08,1C49.05,26.59,48.81,26.92,48.56,27.2Z" transform="translate(-4.47 -5.97)"/><path class="cls-4" d="M42.75,32.11c-.53-1.26-1-2-2.08-2h-.16V28.94h.19a1.29,1.29,0,0,1,.93.3h0c0-.11,0-.22,0-.32A3,3,0,0,1,42,27.49c.73-1.28,1.52-1.84,2.2-1.84a5.5,5.5,0,0,1,2.31.72l-.14.32a2.41,2.41,0,0,0-1.06-.21,3.63,3.63,0,0,0-3.06,2.77,1.61,1.61,0,0,0,.25.41,8.5,8.5,0,0,1,.8,1.38c-.18.42-.35.76-.51,1.07Z" transform="translate(-4.47 -5.97)"/><path class="cls-4" d="M39.92,30.12a5.12,5.12,0,0,0-1.36.2v0a2.14,2.14,0,0,1,1.08,1.81,2.38,2.38,0,0,1-.4,1.21,2.27,2.27,0,0,1-1.91,1.23,2.36,2.36,0,0,1-2-1.5l.17-.18a2.35,2.35,0,0,0,1.65.59c1,0,1.69-.46,1.69-.78A1.76,1.76,0,0,0,38,31.43a2.4,2.4,0,0,0-1.12-.5,9.18,9.18,0,0,0-2.63.66l0-.05.49-1.14c1.44-.52,2.15-.59,3.27-1a7.33,7.33,0,0,1,2.25-.5h.28a.6.6,0,0,1,.65.62.58.58,0,0,1-.65.56Z" transform="translate(-4.47 -5.97)"/></svg>